<svg id="Component_1_1" data-name="Component 1 – 1" xmlns="http://www.w3.org/2000/svg" width="183.066" height="40" viewBox="0 0 183.066 40">
  <path id="Path_49" data-name="Path 49" d="M126.991,373.276s1.407-10.117,3.858-10.117c1.914,0,173.842-.017,175.434,0,2.1.023,3.774,10.117,3.774,10.117Z" transform="translate(-126.991 -363.152)" fill="#534f4f"/>
  <path id="Path_50" data-name="Path 50" d="M308.616,363.162c-.411,0-1.546-.134-2.761,2.38-3.33,6.888-16.113,30.34-16.113,30.34-1.971,4.5-5.6,7.272-9.533,7.272H161.794c-3.93,0-7.562-2.77-9.534-7.272,0,0-11.35-20.912-15.133-29.548-1.39-3.172-3.071-3.172-3.071-3.172Z" transform="translate(-129.068 -363.155)" fill="#323232"/>
</svg>